<?xml version="1.0" encoding="UTF-8"?>
<!--
  downstage-icons.svg - minimal stroke icon set
  Use: svg.icon use href="downstage-icons.svg#rocket"
  viewBox 24x24, currentColor, stroke 1.6, linecap/join round, fill none
-->
<svg xmlns="http://www.w3.org/2000/svg" style="display:none" aria-hidden="true">
  <defs>
    <style>
      symbol { fill: none; stroke: currentColor; stroke-width: 1.6;
               stroke-linecap: round; stroke-linejoin: round; }
    </style>
  </defs>

  <!-- ============ NAVIGATION & ARROWS ============ -->

  <symbol id="arrow-right" viewBox="0 0 24 24">
    <path d="M5 12h14M13 6l6 6-6 6"/>
  </symbol>

  <symbol id="arrow-left" viewBox="0 0 24 24">
    <path d="M19 12H5M11 18l-6-6 6-6"/>
  </symbol>

  <symbol id="arrow-up" viewBox="0 0 24 24">
    <path d="M12 19V5M6 11l6-6 6 6"/>
  </symbol>

  <symbol id="arrow-down" viewBox="0 0 24 24">
    <path d="M12 5v14M18 13l-6 6-6-6"/>
  </symbol>

  <symbol id="arrow-up-right" viewBox="0 0 24 24">
    <path d="M7 17 17 7M8 7h9v9"/>
  </symbol>

  <symbol id="chevron-right" viewBox="0 0 24 24">
    <path d="m9 6 6 6-6 6"/>
  </symbol>

  <symbol id="chevron-left" viewBox="0 0 24 24">
    <path d="m15 6-6 6 6 6"/>
  </symbol>

  <symbol id="chevron-up" viewBox="0 0 24 24">
    <path d="m6 15 6-6 6 6"/>
  </symbol>

  <symbol id="chevron-down" viewBox="0 0 24 24">
    <path d="m6 9 6 6 6-6"/>
  </symbol>

  <symbol id="external-link" viewBox="0 0 24 24">
    <path d="M14 4h6v6M20 4l-9 9M19 13v6a1 1 0 0 1-1 1H5a1 1 0 0 1-1-1V6a1 1 0 0 1 1-1h6"/>
  </symbol>

  <!-- ============ ACTIONS ============ -->

  <symbol id="check" viewBox="0 0 24 24">
    <path d="m5 12 5 5L20 7"/>
  </symbol>

  <symbol id="check-circle" viewBox="0 0 24 24">
    <circle cx="12" cy="12" r="9"/>
    <path d="m8 12 3 3 5-6"/>
  </symbol>

  <symbol id="x" viewBox="0 0 24 24">
    <path d="M18 6 6 18M6 6l12 12"/>
  </symbol>

  <symbol id="x-circle" viewBox="0 0 24 24">
    <circle cx="12" cy="12" r="9"/>
    <path d="m15 9-6 6M9 9l6 6"/>
  </symbol>

  <symbol id="plus" viewBox="0 0 24 24">
    <path d="M12 5v14M5 12h14"/>
  </symbol>

  <symbol id="plus-circle" viewBox="0 0 24 24">
    <circle cx="12" cy="12" r="9"/>
    <path d="M12 8v8M8 12h8"/>
  </symbol>

  <symbol id="minus" viewBox="0 0 24 24">
    <path d="M5 12h14"/>
  </symbol>

  <symbol id="circle" viewBox="0 0 24 24">
    <circle cx="12" cy="12" r="9"/>
  </symbol>

  <symbol id="circle-dot" viewBox="0 0 24 24">
    <circle cx="12" cy="12" r="9"/>
    <circle cx="12" cy="12" r="2.5" fill="currentColor" stroke="none"/>
  </symbol>

  <symbol id="edit" viewBox="0 0 24 24">
    <path d="M11 4H5a1 1 0 0 0-1 1v14a1 1 0 0 0 1 1h14a1 1 0 0 0 1-1v-6"/>
    <path d="M18.5 2.5a2.12 2.12 0 0 1 3 3L12 15l-4 1 1-4 9.5-9.5z"/>
  </symbol>

  <symbol id="pencil" viewBox="0 0 24 24">
    <path d="M14.5 4.5 19 9 8 20H4v-4L14.5 4.5z"/>
    <path d="m13 6 4 4"/>
  </symbol>

  <symbol id="trash" viewBox="0 0 24 24">
    <path d="M4 7h16M10 11v6M14 11v6M5 7l1 13a1 1 0 0 0 1 1h10a1 1 0 0 0 1-1l1-13M9 7V4a1 1 0 0 1 1-1h4a1 1 0 0 1 1 1v3"/>
  </symbol>

  <symbol id="copy" viewBox="0 0 24 24">
    <rect x="9" y="9" width="11" height="11" rx="1.5"/>
    <path d="M5 15H4a1 1 0 0 1-1-1V4a1 1 0 0 1 1-1h10a1 1 0 0 1 1 1v1"/>
  </symbol>

  <symbol id="save" viewBox="0 0 24 24">
    <path d="M5 3h11l4 4v13a1 1 0 0 1-1 1H5a1 1 0 0 1-1-1V4a1 1 0 0 1 1-1z"/>
    <path d="M7 3v5h9V3M7 13h10v8H7z"/>
  </symbol>

  <symbol id="download" viewBox="0 0 24 24">
    <path d="M21 15v4a2 2 0 0 1-2 2H5a2 2 0 0 1-2-2v-4M7 10l5 5 5-5M12 15V3"/>
  </symbol>

  <symbol id="upload" viewBox="0 0 24 24">
    <path d="M21 15v4a2 2 0 0 1-2 2H5a2 2 0 0 1-2-2v-4M17 8l-5-5-5 5M12 3v12"/>
  </symbol>

  <symbol id="refresh" viewBox="0 0 24 24">
    <path d="M3 12a9 9 0 0 1 15-6.7L21 8M21 3v5h-5M21 12a9 9 0 0 1-15 6.7L3 16M3 21v-5h5"/>
  </symbol>

  <symbol id="search" viewBox="0 0 24 24">
    <circle cx="11" cy="11" r="7"/>
    <path d="m20 20-4.3-4.3"/>
  </symbol>

  <symbol id="filter" viewBox="0 0 24 24">
    <path d="M3 5h18l-7 9v6l-4-2v-4L3 5z"/>
  </symbol>

  <symbol id="settings" viewBox="0 0 24 24">
    <circle cx="12" cy="12" r="3"/>
    <path d="M19.4 15a1.65 1.65 0 0 0 .33 1.82l.06.06a2 2 0 0 1-2.83 2.83l-.06-.06a1.65 1.65 0 0 0-1.82-.33 1.65 1.65 0 0 0-1 1.51V21a2 2 0 0 1-4 0v-.09A1.65 1.65 0 0 0 9 19.4a1.65 1.65 0 0 0-1.82.33l-.06.06a2 2 0 0 1-2.83-2.83l.06-.06A1.65 1.65 0 0 0 4.6 15a1.65 1.65 0 0 0-1.51-1H3a2 2 0 0 1 0-4h.09A1.65 1.65 0 0 0 4.6 9a1.65 1.65 0 0 0-.33-1.82l-.06-.06a2 2 0 0 1 2.83-2.83l.06.06a1.65 1.65 0 0 0 1.82.33H9a1.65 1.65 0 0 0 1-1.51V3a2 2 0 0 1 4 0v.09a1.65 1.65 0 0 0 1 1.51 1.65 1.65 0 0 0 1.82-.33l.06-.06a2 2 0 0 1 2.83 2.83l-.06.06a1.65 1.65 0 0 0-.33 1.82V9a1.65 1.65 0 0 0 1.51 1H21a2 2 0 0 1 0 4h-.09a1.65 1.65 0 0 0-1.51 1z"/>
  </symbol>

  <!-- ============ FILE & DOCS ============ -->

  <symbol id="file" viewBox="0 0 24 24">
    <path d="M14 3H6a1 1 0 0 0-1 1v16a1 1 0 0 0 1 1h12a1 1 0 0 0 1-1V8l-5-5z"/>
    <path d="M14 3v5h5"/>
  </symbol>

  <symbol id="file-text" viewBox="0 0 24 24">
    <path d="M14 3H6a1 1 0 0 0-1 1v16a1 1 0 0 0 1 1h12a1 1 0 0 0 1-1V8l-5-5z"/>
    <path d="M14 3v5h5M9 13h6M9 17h6M9 9h2"/>
  </symbol>

  <symbol id="file-pdf" viewBox="0 0 24 24">
    <path d="M14 3H6a1 1 0 0 0-1 1v16a1 1 0 0 0 1 1h12a1 1 0 0 0 1-1V8l-5-5z"/>
    <path d="M14 3v5h5"/>
    <path d="M8.5 14v3.5M8.5 14h1a1 1 0 0 1 0 2h-1M12 14v3.5h.8a1.6 1.6 0 0 0 1.6-1.75 1.6 1.6 0 0 0-1.6-1.75H12M16 14v3.5M16 14h1.8M16 15.6h1.4"/>
  </symbol>

  <symbol id="file-image" viewBox="0 0 24 24">
    <path d="M14 3H6a1 1 0 0 0-1 1v16a1 1 0 0 0 1 1h12a1 1 0 0 0 1-1V8l-5-5z"/>
    <path d="M14 3v5h5"/>
    <circle cx="9.5" cy="13.5" r="1.2"/>
    <path d="m5 20 5-5 4 4 2-2 4 4"/>
  </symbol>

  <symbol id="file-code" viewBox="0 0 24 24">
    <path d="M14 3H6a1 1 0 0 0-1 1v16a1 1 0 0 0 1 1h12a1 1 0 0 0 1-1V8l-5-5z"/>
    <path d="M14 3v5h5M10 13l-2 2 2 2M14 13l2 2-2 2"/>
  </symbol>

  <symbol id="folder" viewBox="0 0 24 24">
    <path d="M3 6a1 1 0 0 1 1-1h5l2 2h9a1 1 0 0 1 1 1v10a1 1 0 0 1-1 1H4a1 1 0 0 1-1-1V6z"/>
  </symbol>

  <symbol id="image" viewBox="0 0 24 24">
    <rect x="3" y="4" width="18" height="16" rx="1.5"/>
    <circle cx="9" cy="10" r="1.5"/>
    <path d="m21 16-5-5-9 9"/>
  </symbol>

  <symbol id="link" viewBox="0 0 24 24">
    <path d="M10 14a4.5 4.5 0 0 0 6.36 0l3-3a4.5 4.5 0 0 0-6.36-6.36l-1.5 1.5"/>
    <path d="M14 10a4.5 4.5 0 0 0-6.36 0l-3 3a4.5 4.5 0 0 0 6.36 6.36l1.5-1.5"/>
  </symbol>

  <!-- ============ COMMUNICATION ============ -->

  <symbol id="mail" viewBox="0 0 24 24">
    <rect x="3" y="5" width="18" height="14" rx="1.5"/>
    <path d="m3 7 9 6 9-6"/>
  </symbol>

  <symbol id="bell" viewBox="0 0 24 24">
    <path d="M18 16a3 3 0 0 1-3-3V9a4 4 0 0 0-8 0v4a3 3 0 0 1-3 3h14z"/>
    <path d="M10 19a2 2 0 0 0 4 0"/>
  </symbol>

  <symbol id="message" viewBox="0 0 24 24">
    <path d="M21 15a2 2 0 0 1-2 2H7l-4 4V5a2 2 0 0 1 2-2h14a2 2 0 0 1 2 2v10z"/>
  </symbol>

  <symbol id="phone" viewBox="0 0 24 24">
    <path d="M22 16.9v3a2 2 0 0 1-2.18 2 19.8 19.8 0 0 1-8.63-3.07 19.5 19.5 0 0 1-6-6 19.8 19.8 0 0 1-3.07-8.67A2 2 0 0 1 4.11 2h3a2 2 0 0 1 2 1.72 12.8 12.8 0 0 0 .7 2.81 2 2 0 0 1-.45 2.11L8.09 9.91a16 16 0 0 0 6 6l1.27-1.27a2 2 0 0 1 2.11-.45 12.8 12.8 0 0 0 2.81.7A2 2 0 0 1 22 16.9z"/>
  </symbol>

  <!-- ============ USER & SOCIAL ============ -->

  <symbol id="user" viewBox="0 0 24 24">
    <circle cx="12" cy="8" r="4"/>
    <path d="M4 21a8 8 0 0 1 16 0"/>
  </symbol>

  <symbol id="users" viewBox="0 0 24 24">
    <circle cx="9" cy="8" r="3.5"/>
    <path d="M3 20a6 6 0 0 1 12 0"/>
    <circle cx="17" cy="9" r="2.5"/>
    <path d="M16 14a5 5 0 0 1 5 5"/>
  </symbol>

  <symbol id="user-plus" viewBox="0 0 24 24">
    <circle cx="9" cy="8" r="4"/>
    <path d="M2 21a7 7 0 0 1 14 0"/>
    <path d="M19 8v6M16 11h6"/>
  </symbol>

  <symbol id="heart" viewBox="0 0 24 24">
    <path d="M12 20s-7-4.5-9.5-9C.83 7.5 3.5 4 7 4c2 0 3.5 1 5 3 1.5-2 3-3 5-3 3.5 0 6.17 3.5 4.5 7C19 15.5 12 20 12 20z"/>
  </symbol>

  <symbol id="star" viewBox="0 0 24 24">
    <path d="m12 3 2.9 6 6.6.9-4.8 4.6 1.2 6.5L12 17.8 6.1 21l1.2-6.5L2.5 9.9 9.1 9 12 3z"/>
  </symbol>

  <symbol id="bookmark" viewBox="0 0 24 24">
    <path d="M6 3h12a1 1 0 0 1 1 1v17l-7-4-7 4V4a1 1 0 0 1 1-1z"/>
  </symbol>

  <!-- ============ DEV & TECH ============ -->

  <symbol id="rocket-classic" viewBox="0 0 24 24">
    <path d="M13.8 3.2c-3 1-5.3 3.3-6.3 6.3l-2.9 2.9 2.5 2.5 2.9-2.9c3-1 5.3-3.3 6.3-6.3L18 4.1z"/>
    <path d="m11.8 12.2 2 2"/>
    <circle cx="14.1" cy="9.9" r="1.3"/>
    <path d="M8 16c-.8 1.2-.8 2.8 0 4 1.2.8 2.8.8 4 0"/>
  </symbol>

  <symbol id="code" viewBox="0 0 24 24">
    <path d="m9 8-5 4 5 4M15 8l5 4-5 4M14 5l-4 14"/>
  </symbol>

  <symbol id="terminal" viewBox="0 0 24 24">
    <rect x="3" y="4" width="18" height="16" rx="1.5"/>
    <path d="m7 9 3 3-3 3M13 15h4"/>
  </symbol>

  <symbol id="github" viewBox="0 0 24 24">
    <path d="M9 19c-4 1.5-4-2-6-2.5M15 22v-3.9a3.4 3.4 0 0 0-.94-2.61c3.14-.35 6.44-1.54 6.44-7a5.43 5.43 0 0 0-1.5-3.75 5 5 0 0 0-.09-3.77S17.68.66 15 2.48a13.4 13.4 0 0 0-7 0C5.32.66 4.09 1.05 4.09 1.05A5 5 0 0 0 4 4.82a5.44 5.44 0 0 0-1.5 3.78c0 5.42 3.3 6.61 6.44 7A3.37 3.37 0 0 0 8 18.13V22"/>
  </symbol>

  <symbol id="database" viewBox="0 0 24 24">
    <ellipse cx="12" cy="5" rx="8" ry="2.5"/>
    <path d="M4 5v6c0 1.4 3.6 2.5 8 2.5s8-1.1 8-2.5V5"/>
    <path d="M4 11v6c0 1.4 3.6 2.5 8 2.5s8-1.1 8-2.5v-6"/>
  </symbol>

  <symbol id="server" viewBox="0 0 24 24">
    <rect x="3" y="4" width="18" height="7" rx="1"/>
    <rect x="3" y="13" width="18" height="7" rx="1"/>
    <path d="M7 7.5h.01M7 16.5h.01"/>
  </symbol>

  <symbol id="cloud" viewBox="0 0 24 24">
    <path d="M17 19a4.5 4.5 0 0 0 1-8.86A6 6 0 0 0 6.07 11.4 4 4 0 0 0 7 19h10z"/>
  </symbol>

  <symbol id="zap" viewBox="0 0 24 24">
    <path d="M13 2 4 14h7l-1 8 9-12h-7l1-8z"/>
  </symbol>

  <!-- ============ MEDIA ============ -->

  <symbol id="play" viewBox="0 0 24 24">
    <path d="M6 4v16l14-8L6 4z"/>
  </symbol>

  <symbol id="pause" viewBox="0 0 24 24">
    <path d="M7 4h3v16H7zM14 4h3v16h-3z"/>
  </symbol>

  <symbol id="volume" viewBox="0 0 24 24">
    <path d="M11 5 6 9H3v6h3l5 4V5zM16 9a4 4 0 0 1 0 6"/>
  </symbol>

  <symbol id="camera" viewBox="0 0 24 24">
    <path d="M21 18a2 2 0 0 1-2 2H5a2 2 0 0 1-2-2V8a2 2 0 0 1 2-2h3l2-3h4l2 3h3a2 2 0 0 1 2 2v10z"/>
    <circle cx="12" cy="13" r="3.5"/>
  </symbol>

  <symbol id="eye" viewBox="0 0 24 24">
    <path d="M2 12s4-7 10-7 10 7 10 7-4 7-10 7-10-7-10-7z"/>
    <circle cx="12" cy="12" r="3"/>
  </symbol>

  <symbol id="eye-off" viewBox="0 0 24 24">
    <path d="M17.94 17.94A10.5 10.5 0 0 1 12 19c-6 0-10-7-10-7a18 18 0 0 1 4.06-4.94M9.9 4.24A10 10 0 0 1 12 4c6 0 10 7 10 7a18 18 0 0 1-2.16 2.94M14 14a3 3 0 0 1-4-4M2 2l20 20"/>
  </symbol>

  <!-- ============ INFO & STATUS ============ -->

  <symbol id="info" viewBox="0 0 24 24">
    <circle cx="12" cy="12" r="9"/>
    <path d="M12 11v5M12 8h.01"/>
  </symbol>

  <symbol id="alert" viewBox="0 0 24 24">
    <path d="M12 3 2.8 19a1.6 1.6 0 0 0 1.4 2.4h15.6a1.6 1.6 0 0 0 1.4-2.4L12 3z"/>
    <path d="M12 8.2v6.3M12 18h.01"/>
  </symbol>

  <symbol id="help" viewBox="0 0 24 24">
    <circle cx="12" cy="12" r="9"/>
    <path d="M9.1 9a3 3 0 0 1 5.83 1c0 2-3 3-3 3M12 17h.01"/>
  </symbol>

  <symbol id="lock" viewBox="0 0 24 24">
    <rect x="4" y="11" width="16" height="10" rx="1.5"/>
    <path d="M8 11V7a4 4 0 0 1 8 0v4"/>
  </symbol>

  <symbol id="unlock" viewBox="0 0 24 24">
    <rect x="4" y="11" width="16" height="10" rx="1.5"/>
    <path d="M8 11V7a4 4 0 0 1 7.5-2"/>
  </symbol>

  <symbol id="shield" viewBox="0 0 24 24">
    <path d="M12 2 4 5v6c0 5 3.5 9.5 8 11 4.5-1.5 8-6 8-11V5l-8-3z"/>
  </symbol>

  <!-- ============ MISC ============ -->

  <symbol id="home" viewBox="0 0 24 24">
    <path d="m3 11 9-8 9 8M5 9v11a1 1 0 0 0 1 1h12a1 1 0 0 0 1-1V9"/>
  </symbol>

  <symbol id="calendar" viewBox="0 0 24 24">
    <rect x="3" y="5" width="18" height="16" rx="1.5"/>
    <path d="M3 10h18M8 3v4M16 3v4"/>
  </symbol>

  <symbol id="clock" viewBox="0 0 24 24">
    <circle cx="12" cy="12" r="9"/>
    <path d="M12 7v5l3 2"/>
  </symbol>

  <symbol id="map-pin" viewBox="0 0 24 24">
    <path d="M20 10c0 6-8 12-8 12s-8-6-8-12a8 8 0 0 1 16 0z"/>
    <circle cx="12" cy="10" r="3"/>
  </symbol>

  <symbol id="globe" viewBox="0 0 24 24">
    <circle cx="12" cy="12" r="9"/>
    <path d="M3 12h18M12 3a14 14 0 0 1 0 18 14 14 0 0 1 0-18z"/>
  </symbol>

  <symbol id="menu" viewBox="0 0 24 24">
    <path d="M4 7h16M4 12h16M4 17h16"/>
  </symbol>

  <symbol id="more-h" viewBox="0 0 24 24">
    <circle cx="6" cy="12" r="1.2"/>
    <circle cx="12" cy="12" r="1.2"/>
    <circle cx="18" cy="12" r="1.2"/>
  </symbol>

  <symbol id="more-v" viewBox="0 0 24 24">
    <circle cx="12" cy="6" r="1.2"/>
    <circle cx="12" cy="12" r="1.2"/>
    <circle cx="12" cy="18" r="1.2"/>
  </symbol>

  <symbol id="sun" viewBox="0 0 24 24">
    <circle cx="12" cy="12" r="4"/>
    <path d="M12 2v2M12 20v2M4.93 4.93l1.41 1.41M17.66 17.66l1.41 1.41M2 12h2M20 12h2M4.93 19.07l1.41-1.41M17.66 6.34l1.41-1.41"/>
  </symbol>

  <symbol id="moon" viewBox="0 0 24 24">
    <path d="M21 12.8A9 9 0 1 1 11.2 3a7 7 0 0 0 9.8 9.8z"/>
  </symbol>

  <symbol id="tag" viewBox="0 0 24 24">
    <path d="M20 12 12 4H4v8l8 8 8-8z"/>
    <circle cx="8" cy="8" r="1.2"/>
  </symbol>

  <symbol id="briefcase" viewBox="0 0 24 24">
    <rect x="3" y="7" width="18" height="13" rx="1.5"/>
    <path d="M9 7V5a2 2 0 0 1 2-2h2a2 2 0 0 1 2 2v2"/>
  </symbol>

  <symbol id="gift" viewBox="0 0 24 24">
    <rect x="3" y="9" width="18" height="11" rx="1"/>
    <path d="M3 13h18M12 9v11M16 5a2 2 0 0 1-4 0 2 2 0 0 1-4 0c0-2 4-2 4 0 0-2 4-2 4 0z"/>
  </symbol>

  <symbol id="coffee" viewBox="0 0 24 24">
    <path d="M4 8h13v6a4 4 0 0 1-4 4H8a4 4 0 0 1-4-4V8z"/>
    <path d="M17 10h2a2 2 0 0 1 0 4h-2M7 1v3M11 1v3M15 1v3"/>
  </symbol>

  <symbol id="paperclip" viewBox="0 0 24 24">
    <path d="m21 11.5-9.5 9.5a5 5 0 0 1-7-7L14 4.5a3.5 3.5 0 0 1 5 5L9.5 19a2 2 0 0 1-3-3L15 7.5"/>
  </symbol>

  <symbol id="send" viewBox="0 0 24 24">
    <path d="m22 2-7 20-4-9-9-4 20-7zM22 2 11 13"/>
  </symbol>

  <!-- ============ NEW ICONS ============ -->

  <symbol id="cloud-off" viewBox="0 0 24 24">
    <path d="M16.5 18a4.5 4.5 0 0 0 .8-8.93A6 6 0 0 0 6.3 9.8 3.5 3.5 0 0 0 8 18h8.5z"/>
    <path d="M3 4l18 16"/>
  </symbol>

  <symbol id="space-invader" viewBox="0 0 24 24">
    <path d="M8 8h8v2h2v2h2v4h-2v2h-2v2h-2v-2h-4v2H8v-2H6v-2H4v-4h2v-2h2z"/>
    <path d="M9 5v2M15 5v2M8 20v-2M16 20v-2"/>
    <rect x="9" y="11" width="2" height="2" rx=".2" fill="currentColor" stroke="none"/>
    <rect x="13" y="11" width="2" height="2" rx=".2" fill="currentColor" stroke="none"/>
  </symbol>

  <symbol id="linux" viewBox="0 0 24 24">
    <circle cx="12" cy="7" r="3.5"/>
    <ellipse cx="12" cy="14.5" rx="5" ry="6.5"/>
    <ellipse cx="12" cy="15" rx="3" ry="4.2"/>
    <circle cx="10.5" cy="6.5" r=".6" fill="currentColor" stroke="none"/>
    <circle cx="13.5" cy="6.5" r=".6" fill="currentColor" stroke="none"/>
    <path d="M11 8l1 1.2 1-1.2"/>
    <path d="M9.5 20.5L8 22h3"/>
    <path d="M14.5 20.5L16 22h-3"/>
  </symbol>

  <symbol id="apple" viewBox="0 0 24 24">
    <path d="M12.2 7.5c-.9 0-1.9-.4-3-.4-2.4 0-4.1 2.1-4.1 5.1 0 4 2.6 7.3 5.1 7.3.7 0 1.4-.2 2-.7.6.5 1.3.7 2 .7 2.5 0 5.1-3.3 5.1-7.3 0-3-1.7-5.1-4.1-5.1-1.1 0-2.1.4-3 .4z"/>
    <path d="M13.8 4.7c.7-.9 1.9-1.6 3.1-1.7 0 1.2-.4 2.2-1.1 3-.7.7-1.6 1.1-2.6 1.2 0-.9.2-1.8.6-2.5z"/>
  </symbol>

  <symbol id="laravel" viewBox="0 0 24 24">
    <path d="M5 8 9.5 5.5 14 8 9.5 10.5 5 8z"/>
    <path d="M9.5 10.5v6L5 14V8"/>
    <path d="M14 8 18.5 5.5 21 7v6l-4.5 2.5L14 14V8z"/>
    <path d="M9.5 16.5 14 19l7-4"/>
  </symbol>

  <symbol id="php" viewBox="0 0 24 24">
    <ellipse cx="12" cy="12" rx="8.5" ry="4.8"/>
    <path d="M6.3 14.5V9.5h2.1a2 2 0 1 1 0 4H6.3"/>
    <path d="M11 9.5v5M11 12h3.4M14.4 9.5v5"/>
    <path d="M17 14.5V9.5h2.1a2 2 0 1 1 0 4H17"/>
  </symbol>

  <symbol id="rocket" viewBox="0 0 24 24">
    <path d="M12 2.5c2.5 2 4.5 5.5 4.5 9.5s-2 7.5-4.5 9.5c-2.5-2-4.5-5.5-4.5-9.5S9.5 4.5 12 2.5z"/>
    <circle cx="12" cy="11" r="2"/>
    <path d="M9.5 16.5 7 21M14.5 16.5 17 21"/>
    <path d="M5 14.5 3 18h3l1.5-2M19 14.5l2 3.5h-3l-1.5-2"/>
  </symbol>

  <symbol id="dashboard" viewBox="0 0 24 24">
    <circle cx="12" cy="14" r="8"/>
    <path d="M12 14l3-5"/>
    <path d="M5.5 10h1M12 7v1M18.5 10h-1"/>
    <path d="M7.5 16.5l.5-.5M16.5 16.5l-.5-.5"/>
  </symbol>

  <symbol id="wifi" viewBox="0 0 24 24">
    <path d="M2 8.5a14.5 14.5 0 0 1 20 0"/>
    <path d="M5.5 12a9.5 9.5 0 0 1 13 0"/>
    <path d="M9 15.5a5 5 0 0 1 6 0"/>
    <circle cx="12" cy="18.5" r="1" fill="currentColor" stroke="none"/>
  </symbol>

  <symbol id="wifi-off" viewBox="0 0 24 24">
    <path d="M2.5 8.8a14.5 14.5 0 0 1 18.9-.5"/>
    <path d="M6.1 12.4a9.5 9.5 0 0 1 5.9-2.1c2.2 0 4.2.7 5.9 2.1"/>
    <path d="M9.6 15.8a4.7 4.7 0 0 1 4.8 0"/>
    <circle cx="12" cy="18.5" r="1" fill="currentColor" stroke="none"/>
    <path d="M3 3l18 18"/>
  </symbol>

  <symbol id="battery" viewBox="0 0 24 24">
    <rect x="2" y="7" width="18" height="10" rx="1.5"/>
    <path d="M22 10v4"/>
    <rect x="4" y="9" width="10" height="6" rx="0.5" fill="currentColor" stroke="none"/>
  </symbol>

  <symbol id="smartphone" viewBox="0 0 24 24">
    <rect x="6" y="2" width="12" height="20" rx="2"/>
    <path d="M10 18h4"/>
  </symbol>

  <symbol id="monitor" viewBox="0 0 24 24">
    <rect x="2" y="3" width="20" height="14" rx="1.5"/>
    <path d="M8 21h8M12 17v4"/>
  </symbol>

  <symbol id="shopping-cart" viewBox="0 0 24 24">
    <path d="M1 1h4l2.5 13h11l3-8H6"/>
    <circle cx="9" cy="20" r="1.5"/>
    <circle cx="18" cy="20" r="1.5"/>
  </symbol>

  <symbol id="credit-card" viewBox="0 0 24 24">
    <rect x="2" y="5" width="20" height="14" rx="1.5"/>
    <path d="M2 10h20"/>
    <path d="M6 15h4"/>
  </symbol>

  <symbol id="bar-chart" viewBox="0 0 24 24">
    <path d="M4 20h16"/>
    <rect x="6" y="10" width="3" height="10" rx="0.5"/>
    <rect x="11" y="6" width="3" height="14" rx="0.5"/>
    <rect x="16" y="12" width="3" height="8" rx="0.5"/>
  </symbol>

  <symbol id="pie-chart" viewBox="0 0 24 24">
    <path d="M12 3a9 9 0 1 0 9 9h-9V3z"/>
    <path d="M21 12A9 9 0 0 0 12 3v9h9z"/>
  </symbol>

  <symbol id="trending-up" viewBox="0 0 24 24">
    <path d="m2 17 6-6 4 4 8-8"/>
    <path d="M15 7h5v5"/>
  </symbol>

  <symbol id="trending-down" viewBox="0 0 24 24">
    <path d="m2 7 6 6 4-4 8 8"/>
    <path d="M15 17h5v-5"/>
  </symbol>

  <symbol id="activity" viewBox="0 0 24 24">
    <path d="M3 12h4l3-8 4 16 3-8h4"/>
  </symbol>

  <symbol id="layers" viewBox="0 0 24 24">
    <path d="M12 3 2 8l10 5 10-5-10-5z"/>
    <path d="m2 12 10 5 10-5"/>
    <path d="m2 17 10 5 10-5"/>
  </symbol>

  <symbol id="hash" viewBox="0 0 24 24">
    <path d="M4 9h16M4 15h16M10 3l-2 18M16 3l-2 18"/>
  </symbol>

  <symbol id="at-sign" viewBox="0 0 24 24">
    <circle cx="12" cy="12" r="4"/>
    <path d="M16 8v5a3 3 0 0 0 6 0V12a10 10 0 1 0-4 8"/>
  </symbol>

  <symbol id="power" viewBox="0 0 24 24">
    <path d="M12 3v9"/>
    <path d="M18.4 6.6a9 9 0 1 1-12.8 0"/>
  </symbol>

  <symbol id="cpu" viewBox="0 0 24 24">
    <rect x="6" y="6" width="12" height="12" rx="1"/>
    <rect x="9" y="9" width="6" height="6" rx="0.5"/>
    <path d="M9 2v4M15 2v4M9 18v4M15 18v4M2 9h4M2 15h4M18 9h4M18 15h4"/>
  </symbol>

  <symbol id="hard-drive" viewBox="0 0 24 24">
    <path d="M2 14h20"/>
    <rect x="2" y="6" width="20" height="12" rx="2"/>
    <circle cx="17" cy="17" r="1" fill="currentColor" stroke="none"/>
  </symbol>

  <symbol id="headphones" viewBox="0 0 24 24">
    <path d="M4 15v-3a8 8 0 0 1 16 0v3"/>
    <rect x="2" y="15" width="4" height="6" rx="1"/>
    <rect x="18" y="15" width="4" height="6" rx="1"/>
  </symbol>

  <symbol id="mic" viewBox="0 0 24 24">
    <rect x="9" y="2.5" width="6" height="11" rx="3"/>
    <path d="M6 10.5a6 6 0 0 0 12 0"/>
    <path d="M12 16.5v4.5M8.5 21h7"/>
  </symbol>

  <symbol id="mic-off" viewBox="0 0 24 24">
    <path d="M15 9.8V5.5a3 3 0 0 0-6 0v2"/>
    <path d="M6 10.5a6 6 0 0 0 10.2 4.2"/>
    <path d="M18 10.5a6 6 0 0 1-.8 3"/>
    <path d="M12 16.5v4.5M8.5 21h7"/>
    <path d="M3 3l18 18"/>
  </symbol>

  <symbol id="compass" viewBox="0 0 24 24">
    <circle cx="12" cy="12" r="9"/>
    <path d="m16.2 7.8-2.1 6.3-6.3 2.1 2.1-6.3 6.3-2.1z"/>
  </symbol>

  <symbol id="package" viewBox="0 0 24 24">
    <path d="M3 7l9-4 9 4v10l-9 4-9-4V7z"/>
    <path d="M12 21V11M3 7l9 4 9-4"/>
    <path d="m7.5 4.5 9 4"/>
  </symbol>

  <symbol id="printer" viewBox="0 0 24 24">
    <path d="M6 9V2h12v7"/>
    <rect x="2" y="9" width="20" height="9" rx="1.5"/>
    <path d="M6 18v3h12v-3"/>
  </symbol>

  <symbol id="command" viewBox="0 0 24 24">
    <path d="M8 6a3 3 0 1 0-6 0 3 3 0 0 0 3 3h3zM16 6a3 3 0 1 1 6 0 3 3 0 0 1-3 3h-3z"/>
    <path d="M8 18a3 3 0 1 1-6 0 3 3 0 0 1 3-3h3zM16 18a3 3 0 1 0 6 0 3 3 0 0 0-3-3h-3z"/>
    <path d="M8 9h8v6H8z"/>
  </symbol>

  <symbol id="dollar" viewBox="0 0 24 24">
    <path d="M12 3v18"/>
    <path d="M16.5 7.5c0-1.9-1.8-3.5-4.5-3.5S7.5 5.4 7.5 7.5 9 10.4 12 11c3 .6 4.5 1.7 4.5 3.5S14.7 18 12 18s-4.5-1.6-4.5-3.5"/>
  </symbol>

  <symbol id="percent" viewBox="0 0 24 24">
    <circle cx="7.5" cy="7.5" r="2.5"/>
    <circle cx="16.5" cy="16.5" r="2.5"/>
    <path d="M18.5 5.5 5.5 18.5"/>
  </symbol>

  <symbol id="list" viewBox="0 0 24 24">
    <path d="M9 6h11M9 12h11M9 18h11"/>
    <circle cx="4.5" cy="6" r="1" fill="currentColor" stroke="none"/>
    <circle cx="4.5" cy="12" r="1" fill="currentColor" stroke="none"/>
    <circle cx="4.5" cy="18" r="1" fill="currentColor" stroke="none"/>
  </symbol>

  <symbol id="grid-icon" viewBox="0 0 24 24">
    <rect x="3" y="3" width="7" height="7" rx="1"/>
    <rect x="14" y="3" width="7" height="7" rx="1"/>
    <rect x="3" y="14" width="7" height="7" rx="1"/>
    <rect x="14" y="14" width="7" height="7" rx="1"/>
  </symbol>

  <symbol id="toggle-left" viewBox="0 0 24 24">
    <rect x="2" y="6" width="20" height="12" rx="6"/>
    <circle cx="8" cy="12" r="3"/>
  </symbol>

  <symbol id="toggle-right" viewBox="0 0 24 24">
    <rect x="2" y="6" width="20" height="12" rx="6"/>
    <circle cx="16" cy="12" r="3"/>
  </symbol>

  <symbol id="key" viewBox="0 0 24 24">
    <circle cx="7.5" cy="12.5" r="3.5"/>
    <circle cx="7.5" cy="12.5" r="1" fill="currentColor" stroke="none"/>
    <path d="M11 12.5h10"/>
    <path d="M16 12.5v3h-2v-3M19 12.5v2h-2"/>
  </symbol>

  <symbol id="log-in" viewBox="0 0 24 24">
    <path d="M15 3h4a2 2 0 0 1 2 2v14a2 2 0 0 1-2 2h-4"/>
    <path d="m10 17 5-5-5-5M15 12H3"/>
  </symbol>

  <symbol id="log-out" viewBox="0 0 24 24">
    <path d="M9 21H5a2 2 0 0 1-2-2V5a2 2 0 0 1 2-2h4"/>
    <path d="m16 17 5-5-5-5M21 12H9"/>
  </symbol>

  <symbol id="share" viewBox="0 0 24 24">
    <circle cx="18" cy="5" r="3"/>
    <circle cx="6" cy="12" r="3"/>
    <circle cx="18" cy="19" r="3"/>
    <path d="m8.6 13.5 6.8 4M15.4 6.5l-6.8 4"/>
  </symbol>

  <symbol id="inbox" viewBox="0 0 24 24">
    <path d="M3 12l3-9h12l3 9"/>
    <path d="M3 12h5l2 3h4l2-3h5v7a1 1 0 0 1-1 1H4a1 1 0 0 1-1-1v-7z"/>
  </symbol>

  <symbol id="archive" viewBox="0 0 24 24">
    <rect x="2" y="3" width="20" height="5" rx="1"/>
    <path d="M3 8v11a2 2 0 0 0 2 2h14a2 2 0 0 0 2-2V8"/>
    <path d="M10 12h4"/>
  </symbol>

  <symbol id="flag" viewBox="0 0 24 24">
    <path d="M4 15s1-1 4-1 5 2 8 2 4-1 4-1V3s-1 1-4 1-5-2-8-2-4 1-4 1v12z"/>
    <path d="M4 22v-7"/>
  </symbol>

  <symbol id="slider-icon" viewBox="0 0 24 24">
    <path d="M4 21v-7M4 10V3M12 21v-9M12 8V3M20 21v-5M20 12V3"/>
    <circle cx="4" cy="12" r="2"/>
    <circle cx="12" cy="10" r="2"/>
    <circle cx="20" cy="14" r="2"/>
  </symbol>

  <symbol id="music" viewBox="0 0 24 24">
    <path d="M9 18V5l12-2v13"/>
    <circle cx="6" cy="18" r="3"/>
    <circle cx="18" cy="16" r="3"/>
  </symbol>

  <symbol id="film" viewBox="0 0 24 24">
    <rect x="2" y="3" width="20" height="18" rx="1.5"/>
    <path d="M7 3v18M17 3v18M2 8h5M17 8h5M2 16h5M17 16h5M2 12h20"/>
  </symbol>

  <symbol id="clipboard" viewBox="0 0 24 24">
    <path d="M9 3h6v2H9z"/>
    <rect x="5" y="3" width="14" height="18" rx="1.5"/>
    <path d="M9 10h6M9 14h6"/>
  </symbol>

  <symbol id="target" viewBox="0 0 24 24">
    <circle cx="12" cy="12" r="9"/>
    <circle cx="12" cy="12" r="5"/>
    <circle cx="12" cy="12" r="1"/>
  </symbol>

  <!-- ============ CURSOR / POINTER ICONS ============ -->

  <symbol id="cursor-arrow" viewBox="0 0 24 24">
    <path d="M4 2l5 18 2.5-6.5L18 11z" fill="currentColor"/>
    <path d="M4 2l5 18 2.5-6.5L18 11z" fill="none"/>
  </symbol>

  <symbol id="cursor-pointer" viewBox="0 0 24 24">
    <path d="M5 3.5 10 18l2.6-5.1 5.4-2.3L5 3.5z"/>
    <path d="m12.4 13 4.1 6"/>
  </symbol>

  <symbol id="cursor-click" viewBox="0 0 24 24">
    <path d="M5 3.5 10.5 19l2.5-5.5 5.5-2.5L5 3.5z"/>
    <path d="m12.5 13 4 6"/>
    <path d="M18 3v3M16.5 4.5h3"/>
    <path d="M19.5 2.5a6 6 0 0 1 0 6"/>
  </symbol>

  <symbol id="hourglass" viewBox="0 0 24 24">
    <path d="M6 2h12v4c0 3-3 5-6 6 3 1 6 3 6 6v4H6v-4c0-3 3-5 6-6-3-1-6-3-6-6V2z"/>
    <path d="M6 2h12"/>
    <path d="M6 22h12"/>
    <path d="M10 12h4"/>
  </symbol>

  <symbol id="crosshair" viewBox="0 0 24 24">
    <circle cx="12" cy="12" r="8"/>
    <path d="M12 2v4M12 18v4M2 12h4M18 12h4"/>
  </symbol>

  <symbol id="text-cursor" viewBox="0 0 24 24">
    <path d="M8 5h8M8 19h8M12 5v14"/>
  </symbol>

  <symbol id="move" viewBox="0 0 24 24">
    <path d="M12 2l3 3h-2v5h5V8l3 3-3 3v-2h-5v5h2l-3 3-3-3h2v-5H5v2l-3-3 3-3v2h5V5H8l4-3z"/>
  </symbol>

  <symbol id="not-allowed" viewBox="0 0 24 24">
    <circle cx="12" cy="12" r="9"/>
    <path d="M5.7 5.7l12.6 12.6"/>
  </symbol>

  <symbol id="zoom-in" viewBox="0 0 24 24">
    <circle cx="10" cy="10" r="7"/>
    <path d="m21 21-4.35-4.35M10 7v6M7 10h6"/>
  </symbol>

  <symbol id="zoom-out" viewBox="0 0 24 24">
    <circle cx="10" cy="10" r="7"/>
    <path d="m21 21-4.35-4.35M7 10h6"/>
  </symbol>

  <!-- ============ ADDITIONAL ICONS ============ -->

  <symbol id="handshake" viewBox="0 0 24 24">
    <rect x="2.5" y="9.5" width="3" height="4" rx=".5"/>
    <rect x="18.5" y="9.5" width="3" height="4" rx=".5"/>
    <path d="M5.5 11.5h2L9 13M18.5 11.5h-2L15 13"/>
    <path d="M8.5 10.5 10 9a2.8 2.8 0 0 1 4 0l1.5 1.5"/>
    <path d="m9 13 1.7 1.7a1.8 1.8 0 0 0 2.6 0L15 13"/>
  </symbol>

  <symbol id="beer" viewBox="0 0 24 24">
    <path d="M7 10h7v7.5A2.5 2.5 0 0 1 11.5 20h-2A2.5 2.5 0 0 1 7 17.5z"/>
    <path d="M14 11h2.2a1.8 1.8 0 0 1 0 3.5H14"/>
    <path d="M7 10c0-1 1-1.8 2.2-1.8.7 0 1.4.3 1.8.8.4-.5 1.1-.8 1.8-.8 1.2 0 2.2.8 2.2 1.8 0 .3-.1.6-.3.8H7.3c-.2-.2-.3-.5-.3-.8z"/>
    <path d="M9.5 12v5M12 12v5"/>
  </symbol>

  <symbol id="wine-bottle" viewBox="0 0 24 24">
    <path d="M10.5 3h3"/>
    <path d="M11 3v4l-1.5 2.5V20a1.5 1.5 0 0 0 1.5 1.5h2A1.5 1.5 0 0 0 14.5 20V9.5L13 7V3"/>
    <path d="M9.5 12.5h5"/>
  </symbol>

  <symbol id="wine-glass" viewBox="0 0 24 24">
    <path d="M8 4h8v2.5A4 4 0 0 1 12 10.5 4 4 0 0 1 8 6.5V4z"/>
    <path d="M12 10.5V18"/>
    <path d="M9 20h6"/>
  </symbol>

  <!-- ============ REQUESTED ADDITIONS ============ -->

  <symbol id="plane-takeoff" viewBox="0 0 24 24">
    <path d="M2 19.5h20"/>
    <path d="M4 17.5h2.8l7.2-1.8 4.5-5.5 1.8.6-1 5.2 5.5 1.4-.4 1.4-6.2-1-3 3.6h-2.2l1.2-3.6-4.8-.8z"/>
  </symbol>

  <symbol id="plane-landing" viewBox="0 0 24 24">
    <path d="M2 19.5h20"/>
    <path d="M4 14.5h2.8l7.2 1.8 4.5 5.5 1.8-.6-1-5.2 5.5-1.4-.4-1.4-6.2 1-3-3.6h-2.2l1.2 3.6-4.8.8z"/>
  </symbol>

  <symbol id="pointer-pin" viewBox="0 0 24 24">
    <path d="M12 21s7-5.5 7-10a7 7 0 1 0-14 0c0 4.5 7 10 7 10z"/>
    <circle cx="12" cy="11" r="2.5"/>
  </symbol>

  <symbol id="facebook" viewBox="0 0 24 24">
    <circle cx="12" cy="12" r="9"/>
    <path d="M14.5 8.5H13c-.8 0-1 .4-1 1v1.5h2.5l-.4 2.5H12V18h-2.5v-4.5H8V11h1.5V9.2c0-2 1.2-3.2 3.2-3.2h2v2.5z"/>
  </symbol>

  <symbol id="linkedin" viewBox="0 0 24 24">
    <rect x="3" y="3" width="18" height="18" rx="2"/>
    <path d="M8 10v8M8 7.5h.01"/>
    <path d="M12.5 18v-8"/>
    <path d="M12.5 13.5a3 3 0 0 1 5-2.2V18"/>
  </symbol>

  <symbol id="instagram" viewBox="0 0 24 24">
    <rect x="4" y="4" width="16" height="16" rx="5"/>
    <circle cx="12" cy="12" r="3.5"/>
    <circle cx="16.7" cy="7.3" r="1" fill="currentColor" stroke="none"/>
  </symbol>

  <symbol id="google-g" viewBox="0 0 24 24">
    <path d="M19 8.5A8 8 0 1 0 20 12"/>
    <path d="M20 12h-7"/>
  </symbol>

  <symbol id="medium" viewBox="0 0 24 24">
    <circle cx="6.5" cy="12" r="4.2" fill="currentColor" stroke="none"/>
    <ellipse cx="13.6" cy="12" rx="3.1" ry="4.5" fill="currentColor" stroke="none"/>
    <ellipse cx="18.8" cy="12" rx="1.7" ry="3.1" fill="currentColor" stroke="none"/>
  </symbol>

  <symbol id="qr-code" viewBox="0 0 24 24">
    <rect x="3" y="3" width="7" height="7"/>
    <rect x="14" y="3" width="7" height="7"/>
    <rect x="3" y="14" width="7" height="7"/>
    <rect x="5" y="5" width="3" height="3" fill="currentColor" stroke="none"/>
    <rect x="16" y="5" width="3" height="3" fill="currentColor" stroke="none"/>
    <rect x="5" y="16" width="3" height="3" fill="currentColor" stroke="none"/>
    <path d="M14 14h2v2h-2zM18 14h3M18 17h1M20 17h1M14 18h5M14 20h2M19 20h2"/>
  </symbol>

  <symbol id="barcode" viewBox="0 0 24 24">
    <path d="M3 5v14M5 5v14M8 5v14M11 5v14M13 5v14M16 5v14M18 5v14M21 5v14"/>
  </symbol>

  <symbol id="check-v" viewBox="0 0 24 24">
    <path d="m5 12 5 5 9-10"/>
  </symbol>

  <symbol id="robot-ai" viewBox="0 0 24 24">
    <rect x="4" y="7" width="16" height="12" rx="3"/>
    <path d="M12 3v4M9 12h.01M15 12h.01M8 16h8"/>
    <path d="M2 11h2M20 11h2"/>
  </symbol>

  <symbol id="ball" viewBox="0 0 24 24">
    <circle cx="12" cy="12" r="9"/>
    <path d="M3.5 9c4 2.7 13 2.7 17 0M12 3a14 14 0 0 0 0 18"/>
  </symbol>

  <symbol id="fork-knife" viewBox="0 0 24 24">
    <path d="M7 3v6"/>
    <path d="M5.5 3v3.5M7 3v3.5M8.5 3v3.5"/>
    <path d="M7 9v12"/>
    <path d="M16.5 3v18"/>
    <path d="M16.5 3c1.7 1.8 2.5 4.1 2.5 6.8s-.8 5-2.5 6.8"/>
  </symbol>

  <symbol id="microphone" viewBox="0 0 24 24">
    <use href="#mic"/>
  </symbol>

  <symbol id="arrows-up-down" viewBox="0 0 24 24">
    <path d="M8 19V5M8 5 5 8M8 5l3 3"/>
    <path d="M16 5v14M16 19l-3-3M16 19l3-3"/>
  </symbol>

  <symbol id="face-smile" viewBox="0 0 24 24">
    <circle cx="12" cy="12" r="9"/>
    <circle cx="9" cy="10" r="1" fill="currentColor" stroke="none"/>
    <circle cx="15" cy="10" r="1" fill="currentColor" stroke="none"/>
    <path d="M8.5 14c.9 1.3 2 2 3.5 2s2.6-.7 3.5-2"/>
  </symbol>

  <symbol id="face-sad" viewBox="0 0 24 24">
    <circle cx="12" cy="12" r="9"/>
    <circle cx="9" cy="10" r="1" fill="currentColor" stroke="none"/>
    <circle cx="15" cy="10" r="1" fill="currentColor" stroke="none"/>
    <path d="M8.5 16c.9-1.3 2-2 3.5-2s2.6.7 3.5 2"/>
  </symbol>

  <symbol id="face-neutral" viewBox="0 0 24 24">
    <circle cx="12" cy="12" r="9"/>
    <circle cx="9" cy="10" r="1" fill="currentColor" stroke="none"/>
    <circle cx="15" cy="10" r="1" fill="currentColor" stroke="none"/>
    <path d="M9 15h6"/>
  </symbol>

  <symbol id="face-love" viewBox="0 0 24 24">
    <circle cx="12" cy="12" r="9"/>
    <path d="M7.5 8.5c-.4-.6-1.3-.6-1.7 0-.3.5-.1 1 .4 1.4l1.3 1 1.3-1c.5-.4.7-.9.4-1.4-.4-.6-1.3-.6-1.7 0z" fill="currentColor" stroke="none"/>
    <path d="M15.5 8.5c-.4-.6-1.3-.6-1.7 0-.3.5-.1 1 .4 1.4l1.3 1 1.3-1c.5-.4.7-.9.4-1.4-.4-.6-1.3-.6-1.7 0z" fill="currentColor" stroke="none"/>
    <path d="M8 14.5c1.1 1.4 2.5 2.2 4 2.2s2.9-.8 4-2.2"/>
  </symbol>

  <symbol id="face-tongue" viewBox="0 0 24 24">
    <circle cx="12" cy="12" r="9"/>
    <circle cx="9" cy="10" r=".9" fill="currentColor" stroke="none"/>
    <circle cx="15" cy="10" r=".9" fill="currentColor" stroke="none"/>
    <path d="M8.5 13.5c.8 1 2 1.5 3.5 1.5s2.7-.5 3.5-1.5"/>
    <path d="M10.2 14.8h3.6v1.7a1.8 1.8 0 0 1-3.6 0z" fill="currentColor" stroke="none"/>
  </symbol>

  <symbol id="woman" viewBox="0 0 24 24">
    <circle cx="12" cy="5.5" r="2.5"/>
    <path d="M9.5 10h5l2 7H7.5z"/>
    <path d="M10.5 17 9.5 21M13.5 17l1 4"/>
  </symbol>

  <symbol id="man" viewBox="0 0 24 24">
    <circle cx="12" cy="5.5" r="2.5"/>
    <path d="M9.5 10h5"/>
    <path d="M12 8v6"/>
    <path d="M10 14 8.5 21M14 14l1.5 7"/>
    <path d="M10 10 8.5 13.5M14 10l1.5 3.5"/>
  </symbol>

  <symbol id="child" viewBox="0 0 24 24">
    <circle cx="12" cy="6.5" r="2"/>
    <path d="M12 8.5v4.5"/>
    <path d="M9.5 11h5"/>
    <path d="M10.2 13 8.5 19.5M13.8 13l1.7 6.5"/>
  </symbol>

  <symbol id="paw" viewBox="0 0 24 24">
    <ellipse cx="6.2" cy="9.6" rx="1.05" ry="1.5" transform="rotate(-14 6.2 9.6)"/>
    <ellipse cx="9.8" cy="6.4" rx="1.05" ry="1.5"/>
    <ellipse cx="14.2" cy="6.4" rx="1.05" ry="1.5"/>
    <ellipse cx="17.8" cy="9.6" rx="1.05" ry="1.5" transform="rotate(14 17.8 9.6)"/>
    <ellipse cx="12" cy="17.6" rx="5.2" ry="4.6"/>
  </symbol>

  <symbol id="fingerprint" viewBox="0 0 24 24">
    <path d="M12 3.5a7.5 7.5 0 0 1 7.5 7.5c0 3.8-1.8 7.4-4.8 9.7"/>
    <path d="M12 6a5 5 0 0 1 5 5c0 3-1.4 5.7-3.8 7.5"/>
    <path d="M12 8.5a2.5 2.5 0 0 1 2.5 2.5c0 2.1-1.1 4.2-3 5.7"/>
    <path d="M8.5 5.2A7.5 7.5 0 0 0 4.5 12c0 2.5.8 4.9 2.4 6.8"/>
    <path d="M8.8 8A5 5 0 0 0 7 11.5c0 2.2.8 4.2 2.3 5.8"/>
    <path d="M9.5 10.8c-.6.7-1 1.5-1 2.4 0 1.3.5 2.5 1.5 3.5"/>
  </symbol>

  <symbol id="fire" viewBox="0 0 24 24">
    <path d="M12 3.5c2.4 2.6 5 5.6 5 9.4a5 5 0 1 1-10 0c0-2.3 1.1-4.4 2.8-6.5.4 1.1 1 2.2 1.9 3 .5-1 1-2.3 1-3.7 0-1-.2-2.1-.7-3.2z"/>
    <path d="M12 12.5c1.1 1.2 2 2.5 2 4a2 2 0 1 1-4 0c0-1.2.7-2.4 2-4z"/>
  </symbol>

  <symbol id="euro" viewBox="0 0 24 24">
    <path d="M18 6.5A8 8 0 0 0 6.8 9.2"/>
    <path d="M4 10.5h10"/>
    <path d="M4 13.5h10"/>
    <path d="M18 17.5A8 8 0 0 1 6.8 14.8"/>
  </symbol>

  <symbol id="money" viewBox="0 0 24 24">
    <rect x="3" y="7" width="18" height="10" rx="1.5"/>
    <circle cx="12" cy="12" r="2.5"/>
    <path d="M6 10c0 1.1-.9 2-2 2M18 10c0 1.1.9 2 2 2M6 14c0-1.1-.9-2-2-2M18 14c0-1.1.9-2 2-2"/>
  </symbol>

  <symbol id="coins" viewBox="0 0 24 24">
    <ellipse cx="10" cy="7" rx="4.5" ry="1.8"/>
    <path d="M5.5 7v4c0 1 2 1.8 4.5 1.8s4.5-.8 4.5-1.8V7"/>
    <path d="M9 13.5c0-1 2-1.8 4.5-1.8s4.5.8 4.5 1.8v3.5c0 1-2 1.8-4.5 1.8S9 18 9 17z"/>
    <path d="M9 13.5c0 1 2 1.8 4.5 1.8s4.5-.8 4.5-1.8"/>
  </symbol>

  <symbol id="wallet" viewBox="0 0 24 24">
    <path d="M4 8a2 2 0 0 1 2-2h11a2 2 0 0 1 2 2v2H8a2 2 0 0 0-2 2v4H6a2 2 0 0 1-2-2z"/>
    <path d="M6 10h13a2 2 0 0 1 2 2v4a2 2 0 0 1-2 2H8a2 2 0 0 1-2-2z"/>
    <circle cx="17" cy="14" r="1" fill="currentColor" stroke="none"/>
  </symbol>

  <symbol id="boat" viewBox="0 0 24 24">
    <path d="M12 4v10"/>
    <path d="M12 4 7 10h5"/>
    <path d="M13 6l4 4h-4"/>
    <path d="M5 15h14l-1.5 3H6.5z"/>
    <path d="M4 19c1.5 1 3 1 4.5 0 1.5 1 3 1 4.5 0 1.5 1 3 1 4.5 0"/>
  </symbol>

  <symbol id="windows" viewBox="0 0 24 24">
    <path d="M4 5.5 11 4.5v6H4z"/>
    <path d="M13 4.2 20 3.5v7H13z"/>
    <path d="M4 12.5h7v7L4 18.5z"/>
    <path d="M13 12.5h7v8l-7-1z"/>
  </symbol>

  <symbol id="door" viewBox="0 0 24 24">
    <path d="M7 21V4.5L18 3v18z"/>
    <path d="M4 21h16"/>
    <circle cx="15" cy="12" r=".8" fill="currentColor" stroke="none"/>
  </symbol>

  <symbol id="parking" viewBox="0 0 24 24">
    <rect x="4" y="3" width="16" height="18" rx="2"/>
    <path d="M10 17V7h4a3 3 0 0 1 0 6h-4"/>
  </symbol>

  <symbol id="traffic-light" viewBox="0 0 24 24">
    <rect x="8" y="3" width="8" height="18" rx="3"/>
    <circle cx="12" cy="7" r="1.4"/>
    <circle cx="12" cy="12" r="1.4"/>
    <circle cx="12" cy="17" r="1.4"/>
    <path d="M12 21v2"/>
  </symbol>

  <symbol id="home-building" viewBox="0 0 24 24">
    <path d="M13 4h7v16h-7"/>
    <path d="M15.5 7h2M15.5 10h2M15.5 13h2"/>
    <path d="m4 12 4-4 4 4v8H4z"/>
    <path d="M7 20v-4h2v4"/>
  </symbol>

  <symbol id="flower" viewBox="0 0 24 24">
    <circle cx="12" cy="5.5" r="2.5"/>
    <circle cx="15.3" cy="8" r="2.5"/>
    <circle cx="14" cy="12" r="2.5"/>
    <circle cx="10" cy="12" r="2.5"/>
    <circle cx="8.7" cy="8" r="2.5"/>
    <circle cx="12" cy="9" r="1.5" fill="currentColor" stroke="none"/>
    <path d="M12 14v7"/>
    <path d="M12 18l-2.5 2M12 18l2.5 2"/>
  </symbol>

  <symbol id="popcorn" viewBox="0 0 24 24">
    <path d="M7.5 10 9 21h6l1.5-11"/>
    <path d="M7 10h10"/>
    <circle cx="9" cy="7.5" r="2.2"/>
    <circle cx="12" cy="5.8" r="2.2"/>
    <circle cx="15" cy="7.5" r="2.2"/>
  </symbol>

  <symbol id="cocktail" viewBox="0 0 24 24">
    <path d="M6 4h12l-6 9z"/>
    <path d="M12 13v7"/>
    <path d="M8 20h8"/>
  </symbol>

  <symbol id="airplane" viewBox="0 0 24 24">
    <path d="M11 10V4a1 1 0 0 1 2 0v6l8 4v1l-8-2v5l2.5 1.5v1L12 19l-3.5 1.5v-1L11 18v-5l-8 2v-1z"/>
  </symbol>

  <symbol id="moto" viewBox="0 0 24 24">
    <circle cx="5.5" cy="16" r="3"/>
    <circle cx="18.5" cy="16" r="3"/>
    <path d="M8.5 16 12 9h3.5L18.5 13"/>
    <path d="M12 9l-1-3h3"/>
    <path d="M9 14h7"/>
  </symbol>

  <symbol id="car" viewBox="0 0 24 24">
    <path d="M6 12l2-5h8l2 5"/>
    <path d="M3 12h18v5H3z"/>
    <circle cx="7.5" cy="17" r="2"/>
    <circle cx="16.5" cy="17" r="2"/>
  </symbol>


</svg>
